<svg width="207" height="207" viewBox="0 0 207 207" fill="none" xmlns="http://www.w3.org/2000/svg">
<path d="M74.373 167C72.6641 167 71.3213 166.39 70.3447 165.169C69.417 163.899 68.9531 162.459 68.9531 160.848C68.9531 158.992 69.3682 157.405 70.1982 156.087C71.0283 154.769 72.3711 154.109 74.2266 154.109H93.5625V54.3535H57.6738L55.4766 75.374C55.2812 77.2295 54.6465 78.5234 53.5723 79.2559C52.5469 79.9395 51.1797 80.2812 49.4707 80.2812C47.8594 80.2812 46.6143 79.7441 45.7354 78.6699C44.9053 77.5957 44.4902 76.1797 44.4902 74.4219L45.5889 47.1758C45.6865 45.2715 46.0283 43.8555 46.6143 42.9277C47.249 41.9512 48.3965 41.4629 50.0566 41.4629H155.672C158.504 41.4629 159.993 43.3672 160.14 47.1758L161.238 74.4219C161.238 76.1797 160.799 77.5957 159.92 78.6699C159.09 79.7441 157.869 80.2812 156.258 80.2812C154.549 80.2812 153.157 79.915 152.083 79.1826C151.058 78.4502 150.447 77.1807 150.252 75.374L147.981 54.3535H110.628V154.109H130.037C131.893 154.109 133.211 154.769 133.992 156.087C134.822 157.405 135.237 158.992 135.237 160.848C135.237 162.459 134.773 163.899 133.846 165.169C132.918 166.39 131.6 167 129.891 167H74.373Z" fill="#3E7DE3"/>
</svg>
